<svg width="15" height="15" viewBox="0 0 15 15" fill="none" xmlns="http://www.w3.org/2000/svg">
<path d="M10.5891 11.4658C11.2308 11.4658 11.751 10.9457 11.751 10.304C11.751 9.66228 11.2308 9.14209 10.5891 9.14209C9.94741 9.14209 9.42722 9.66228 9.42722 10.304C9.42722 10.9457 9.94741 11.4658 10.5891 11.4658Z" stroke="#141B34" stroke-width="0.67398"/>
<path d="M4.78026 11.4658C5.42194 11.4658 5.94214 10.9457 5.94214 10.304C5.94214 9.66228 5.42194 9.14209 4.78026 9.14209C4.13857 9.14209 3.61838 9.66228 3.61838 10.304C3.61838 10.9457 4.13857 11.4658 4.78026 11.4658Z" stroke="#141B34" stroke-width="0.67398"/>
<path d="M3.61852 10.288C2.98139 10.2563 2.58393 10.1615 2.30108 9.87868C2.01824 9.59583 1.92347 9.19835 1.89171 8.56123M5.94228 10.304H9.42791M11.7517 10.288C12.3888 10.2563 12.7863 10.1615 13.0691 9.87868C13.4945 9.45326 13.4945 8.76863 13.4945 7.39935V6.23747H10.7641C10.3316 6.23747 10.1153 6.23747 9.9403 6.1806C9.58657 6.06569 9.30923 5.78835 9.19432 5.43463C9.13744 5.25962 9.13744 5.04336 9.13744 4.61084C9.13744 3.96207 9.13744 3.63768 9.05216 3.37516C8.87974 2.84458 8.46379 2.42859 7.93321 2.2562C7.67069 2.1709 7.34629 2.1709 6.6975 2.1709H1.8757" stroke="#141B34" stroke-width="0.67398" stroke-linecap="round" stroke-linejoin="round"/>
<path d="M1.8757 4.49438H5.36134" stroke="#141B34" stroke-width="0.67398" stroke-linecap="round" stroke-linejoin="round"/>
<path d="M1.8757 6.2373H4.19946" stroke="#141B34" stroke-width="0.67398" stroke-linecap="round" stroke-linejoin="round"/>
<path d="M9.1362 3.33252H10.1942C11.0397 3.33252 11.4624 3.33252 11.8064 3.538C12.1505 3.74349 12.3509 4.11569 12.7517 4.8601L13.4932 6.23722" stroke="#141B34" stroke-width="0.67398" stroke-linecap="round" stroke-linejoin="round"/>
</svg>
